<?xml version="1.0" encoding="UTF-8"?>
<svg xmlns="http://www.w3.org/2000/svg" xmlns:xlink="http://www.w3.org/1999/xlink" width="3872.98" height="3872.98" viewBox="0 0 3872.98 3872.98">
<defs>
<clipPath id="clip-0">
<path clip-rule="nonzero" d="M 842 697 L 3031 697 L 3031 3176 L 842 3176 Z M 842 697 "/>
</clipPath>
<clipPath id="clip-1">
<path clip-rule="evenodd" d="M 1607.308594 1706.699219 C 1655.511719 1706.699219 1701.550781 1697.230469 1743.679688 1680.070312 L 1810.898438 1796.511719 L 1615.410156 2055.570312 L 1419.910156 1796.488281 L 1484.179688 1685.171875 C 1522.640625 1699.101562 1564.101562 1706.699219 1607.308594 1706.699219 Z M 1643.78125 912.140625 C 1757.710938 912.140625 1881.050781 960.601562 1938.46875 1087.78125 C 1958.609375 823.28125 1640.921875 674.890625 1424.238281 821.300781 C 1318.191406 892.960938 1292.210938 998.480469 1291.230469 1081.929688 C 1363.769531 977.570312 1509.601562 912.140625 1643.78125 912.140625 Z M 1904.128906 1224.140625 C 1875.328125 825.460938 1313.191406 974.710938 1310.710938 1223.011719 L 1310.5 1343.890625 C 1310.5 1462.371094 1380.261719 1564.828125 1480.859375 1612.390625 C 1524.878906 1630.390625 1554.738281 1640.710938 1607.308594 1640.710938 C 1767.941406 1640.710938 1904.128906 1510.429688 1904.128906 1343.890625 Z M 2850.53125 1525.019531 C 2893.941406 1525.019531 2893.960938 1459.050781 2850.53125 1459.050781 L 2333.878906 1459.050781 C 2290.460938 1459.050781 2290.460938 1525.019531 2333.878906 1525.019531 Z M 2850.53125 1337.671875 C 2893.941406 1337.671875 2893.960938 1271.699219 2850.53125 1271.699219 L 2333.878906 1271.699219 C 2290.460938 1271.699219 2290.460938 1337.671875 2333.878906 1337.671875 Z M 2850.53125 1150.289062 C 2893.941406 1150.289062 2893.960938 1084.320312 2850.53125 1084.320312 L 2333.878906 1084.320312 C 2290.460938 1084.320312 2290.460938 1150.289062 2333.878906 1150.289062 Z M 2220.179688 1631.269531 L 2964.210938 1631.269531 L 2964.210938 978.101562 L 2220.179688 978.101562 Z M 2997.191406 1697.238281 C 3015.410156 1697.238281 3030.160156 1682.46875 3030.179688 1664.230469 L 3030.179688 945.101562 C 3030.179688 926.878906 3015.429688 912.109375 2997.199219 912.109375 L 2187.21875 912.109375 C 2169 912.109375 2154.230469 926.878906 2154.230469 945.101562 L 2154.230469 1664.25 C 2154.230469 1682.46875 2169 1697.238281 2187.21875 1697.238281 Z M 2222.578125 2845.070312 L 2368.140625 2937.929688 C 2368.140625 2919.710938 2367.78125 2888.578125 2401.128906 2888.578125 L 2608.03125 2888.578125 L 2608.03125 2801.488281 L 2401.128906 2801.488281 C 2367.800781 2801.488281 2368.160156 2770.371094 2368.160156 2752.171875 Z M 2401.128906 3031.089844 C 2442.199219 3031.089844 2434.128906 2981.761719 2434.128906 2954.578125 L 2641.011719 2954.578125 C 2659.230469 2954.578125 2674 2939.820312 2674 2921.601562 L 2674 2768.558594 C 2674 2750.339844 2659.230469 2735.558594 2641.011719 2735.558594 L 2434.128906 2735.558594 L 2434.128906 2692.03125 C 2434.128906 2666.019531 2405.308594 2650.210938 2383.398438 2664.210938 L 2143.53125 2817.25 C 2123.261719 2830.199219 2123.238281 2859.898438 2143.53125 2872.859375 L 2383.398438 3025.910156 C 2388.78125 3029.371094 2394.96875 3031.089844 2401.128906 3031.089844 Z M 2194.25 2466.410156 L 2194.25 2379.351562 L 2401.128906 2379.351562 C 2434.460938 2379.351562 2434.128906 2348.238281 2434.128906 2330.019531 L 2579.679688 2422.878906 L 2434.128906 2515.738281 C 2434.128906 2497.539062 2434.480469 2466.410156 2401.128906 2466.410156 Z M 2401.128906 2608.898438 C 2360.058594 2608.898438 2368.160156 2559.550781 2368.160156 2532.371094 L 2161.261719 2532.351562 C 2143.039062 2532.351562 2128.261719 2517.589844 2128.261719 2499.371094 L 2128.261719 2346.308594 C 2128.261719 2328.109375 2143.039062 2313.328125 2161.261719 2313.328125 L 2368.160156 2313.328125 C 2368.160156 2281.808594 2362.378906 2253.429688 2385.269531 2240.878906 C 2395.828125 2235.089844 2408.738281 2235.519531 2418.859375 2242 L 2658.738281 2395.050781 C 2679.03125 2408.011719 2679.03125 2437.691406 2658.738281 2450.660156 L 2418.859375 2603.699219 C 2413.480469 2607.160156 2407.300781 2608.898438 2401.128906 2608.898438 Z M 2401.128906 2158.011719 C 2663.558594 2158.011719 2877.101562 2371.519531 2877.101562 2633.980469 C 2877.101562 2896.398438 2663.558594 3109.921875 2401.128906 3109.921875 C 2139 3109.921875 1925.691406 2896.898438 1925.199219 2634.839844 C 1926.730469 2368.039062 2139.589844 2158.011719 2401.128906 2158.011719 Z M 2401.128906 3175.871094 C 2113.429688 3175.871094 1877.410156 2950.519531 1860.238281 2667.070312 L 875.789062 2667.070312 C 857.566406 2667.070312 842.792969 2652.289062 842.792969 2634.070312 L 842.792969 2216.488281 C 842.792969 1968.050781 1044.929688 1765.949219 1293.390625 1765.949219 L 1361.371094 1765.949219 L 1424.261719 1657.011719 C 1316.820312 1593.960938 1244.519531 1477.230469 1244.519531 1343.890625 L 1244.519531 1226.519531 C 1232.089844 1181.800781 1168.890625 914.238281 1387.25 766.660156 C 1455.53125 720.511719 1529.921875 697.109375 1608.371094 697.109375 C 1749.261719 697.109375 1853.179688 772.699219 1857.550781 775.921875 C 2078.378906 942.730469 1989.839844 1183.53125 1970.101562 1229.628906 C 1960.308594 1277.421875 2018.679688 1511.25 1802.320312 1649.699219 L 1869.429688 1765.949219 L 1937.441406 1765.949219 C 2138.050781 1765.949219 2315.761719 1901.808594 2370.640625 2092.898438 C 2681.328125 2075.488281 2943.070312 2323.441406 2943.070312 2633.949219 C 2943.070312 2932.789062 2699.949219 3175.871094 2401.128906 3175.871094 Z M 1130.539062 2601.121094 L 1130.539062 2249.570312 C 1130.539062 2206.128906 1196.511719 2206.128906 1196.511719 2249.570312 L 1196.511719 2601.121094 L 1860.199219 2601.121094 C 1878.019531 2350.78125 2051.21875 2149.199219 2304.078125 2100.738281 C 2253.898438 1943.050781 2105 1831.941406 1937.429688 1831.941406 L 1866.820312 1831.929688 L 1641.730469 2130.191406 C 1628.558594 2147.671875 1602.261719 2147.648438 1589.070312 2130.191406 L 1363.96875 1831.910156 L 1293.371094 1831.910156 C 1081.289062 1831.910156 908.746094 2004.429688 908.746094 2216.488281 L 908.746094 2601.121094 L 1130.539062 2601.121094 "/>
</clipPath>
<linearGradient id="linear-pattern-0" gradientUnits="userSpaceOnUse" x1="0" y1="0" x2="0.999999" y2="0" gradientTransform="matrix(2187.39, 0, 0, 2187.39, 842.792, 1936.49)">
<stop offset="0" stop-color="rgb(94.508362%, 95.684814%, 98.03772%)" stop-opacity="1"/>
<stop offset="0.0078125" stop-color="rgb(94.314575%, 95.552063%, 97.976685%)" stop-opacity="1"/>
<stop offset="0.015625" stop-color="rgb(93.928528%, 95.285034%, 97.854614%)" stop-opacity="1"/>
<stop offset="0.0234375" stop-color="rgb(93.54248%, 95.018005%, 97.732544%)" stop-opacity="1"/>
<stop offset="0.03125" stop-color="rgb(93.156433%, 94.752502%, 97.608948%)" stop-opacity="1"/>
<stop offset="0.0390625" stop-color="rgb(92.771912%, 94.485474%, 97.486877%)" stop-opacity="1"/>
<stop offset="0.046875" stop-color="rgb(92.385864%, 94.218445%, 97.364807%)" stop-opacity="1"/>
<stop offset="0.0546875" stop-color="rgb(91.999817%, 93.952942%, 97.241211%)" stop-opacity="1"/>
<stop offset="0.0625" stop-color="rgb(91.61377%, 93.685913%, 97.119141%)" stop-opacity="1"/>
<stop offset="0.0703125" stop-color="rgb(91.227722%, 93.418884%, 96.99707%)" stop-opacity="1"/>
<stop offset="0.078125" stop-color="rgb(90.841675%, 93.153381%, 96.873474%)" stop-opacity="1"/>
<stop offset="0.0859375" stop-color="rgb(90.455627%, 92.886353%, 96.751404%)" stop-opacity="1"/>
<stop offset="0.09375" stop-color="rgb(90.06958%, 92.619324%, 96.629333%)" stop-opacity="1"/>
<stop offset="0.101562" stop-color="rgb(89.683533%, 92.353821%, 96.505737%)" stop-opacity="1"/>
<stop offset="0.109375" stop-color="rgb(89.297485%, 92.086792%, 96.383667%)" stop-opacity="1"/>
<stop offset="0.117187" stop-color="rgb(88.911438%, 91.819763%, 96.261597%)" stop-opacity="1"/>
<stop offset="0.125" stop-color="rgb(88.525391%, 91.55426%, 96.138%)" stop-opacity="1"/>
<stop offset="0.132812" stop-color="rgb(88.139343%, 91.287231%, 96.01593%)" stop-opacity="1"/>
<stop offset="0.140625" stop-color="rgb(87.753296%, 91.020203%, 95.89386%)" stop-opacity="1"/>
<stop offset="0.148438" stop-color="rgb(87.367249%, 90.7547%, 95.77179%)" stop-opacity="1"/>
<stop offset="0.15625" stop-color="rgb(86.981201%, 90.487671%, 95.648193%)" stop-opacity="1"/>
<stop offset="0.164062" stop-color="rgb(86.595154%, 90.220642%, 95.526123%)" stop-opacity="1"/>
<stop offset="0.171875" stop-color="rgb(86.209106%, 89.953613%, 95.404053%)" stop-opacity="1"/>
<stop offset="0.179687" stop-color="rgb(85.823059%, 89.68811%, 95.280457%)" stop-opacity="1"/>
<stop offset="0.1875" stop-color="rgb(85.437012%, 89.421082%, 95.158386%)" stop-opacity="1"/>
<stop offset="0.195313" stop-color="rgb(85.050964%, 89.154053%, 95.036316%)" stop-opacity="1"/>
<stop offset="0.203125" stop-color="rgb(84.664917%, 88.88855%, 94.91272%)" stop-opacity="1"/>
<stop offset="0.210938" stop-color="rgb(84.27887%, 88.621521%, 94.790649%)" stop-opacity="1"/>
<stop offset="0.21875" stop-color="rgb(83.892822%, 88.354492%, 94.668579%)" stop-opacity="1"/>
<stop offset="0.226562" stop-color="rgb(83.506775%, 88.088989%, 94.544983%)" stop-opacity="1"/>
<stop offset="0.234375" stop-color="rgb(83.120728%, 87.82196%, 94.422913%)" stop-opacity="1"/>
<stop offset="0.242187" stop-color="rgb(82.73468%, 87.554932%, 94.300842%)" stop-opacity="1"/>
<stop offset="0.25" stop-color="rgb(82.348633%, 87.289429%, 94.177246%)" stop-opacity="1"/>
<stop offset="0.257812" stop-color="rgb(81.962585%, 87.0224%, 94.055176%)" stop-opacity="1"/>
<stop offset="0.265625" stop-color="rgb(81.576538%, 86.755371%, 93.933105%)" stop-opacity="1"/>
<stop offset="0.273438" stop-color="rgb(81.190491%, 86.489868%, 93.809509%)" stop-opacity="1"/>
<stop offset="0.28125" stop-color="rgb(80.804443%, 86.222839%, 93.687439%)" stop-opacity="1"/>
<stop offset="0.289062" stop-color="rgb(80.418396%, 85.955811%, 93.565369%)" stop-opacity="1"/>
<stop offset="0.296875" stop-color="rgb(80.032349%, 85.690308%, 93.443298%)" stop-opacity="1"/>
<stop offset="0.304688" stop-color="rgb(79.646301%, 85.423279%, 93.319702%)" stop-opacity="1"/>
<stop offset="0.3125" stop-color="rgb(79.260254%, 85.15625%, 93.197632%)" stop-opacity="1"/>
<stop offset="0.320312" stop-color="rgb(78.874207%, 84.889221%, 93.075562%)" stop-opacity="1"/>
<stop offset="0.328125" stop-color="rgb(78.488159%, 84.623718%, 92.951965%)" stop-opacity="1"/>
<stop offset="0.335937" stop-color="rgb(78.102112%, 84.356689%, 92.829895%)" stop-opacity="1"/>
<stop offset="0.34375" stop-color="rgb(77.716064%, 84.089661%, 92.707825%)" stop-opacity="1"/>
<stop offset="0.351562" stop-color="rgb(77.330017%, 83.824158%, 92.584229%)" stop-opacity="1"/>
<stop offset="0.359375" stop-color="rgb(76.94397%, 83.557129%, 92.462158%)" stop-opacity="1"/>
<stop offset="0.367187" stop-color="rgb(76.557922%, 83.2901%, 92.340088%)" stop-opacity="1"/>
<stop offset="0.375" stop-color="rgb(76.171875%, 83.024597%, 92.216492%)" stop-opacity="1"/>
<stop offset="0.382813" stop-color="rgb(75.785828%, 82.757568%, 92.094421%)" stop-opacity="1"/>
<stop offset="0.390625" stop-color="rgb(75.39978%, 82.49054%, 91.972351%)" stop-opacity="1"/>
<stop offset="0.398438" stop-color="rgb(75.013733%, 82.225037%, 91.848755%)" stop-opacity="1"/>
<stop offset="0.40625" stop-color="rgb(74.627686%, 81.958008%, 91.726685%)" stop-opacity="1"/>
<stop offset="0.414062" stop-color="rgb(74.241638%, 81.690979%, 91.604614%)" stop-opacity="1"/>
<stop offset="0.421875" stop-color="rgb(73.855591%, 81.425476%, 91.482544%)" stop-opacity="1"/>
<stop offset="0.429688" stop-color="rgb(73.469543%, 81.158447%, 91.358948%)" stop-opacity="1"/>
<stop offset="0.4375" stop-color="rgb(73.083496%, 80.891418%, 91.236877%)" stop-opacity="1"/>
<stop offset="0.445312" stop-color="rgb(72.697449%, 80.625916%, 91.114807%)" stop-opacity="1"/>
<stop offset="0.453125" stop-color="rgb(72.311401%, 80.358887%, 90.991211%)" stop-opacity="1"/>
<stop offset="0.460938" stop-color="rgb(71.925354%, 80.091858%, 90.869141%)" stop-opacity="1"/>
<stop offset="0.46875" stop-color="rgb(71.539307%, 79.826355%, 90.74707%)" stop-opacity="1"/>
<stop offset="0.476562" stop-color="rgb(71.153259%, 79.559326%, 90.623474%)" stop-opacity="1"/>
<stop offset="0.484375" stop-color="rgb(70.767212%, 79.292297%, 90.501404%)" stop-opacity="1"/>
<stop offset="0.492187" stop-color="rgb(70.381165%, 79.025269%, 90.379333%)" stop-opacity="1"/>
<stop offset="0.5" stop-color="rgb(69.995117%, 78.759766%, 90.255737%)" stop-opacity="1"/>
<stop offset="0.507812" stop-color="rgb(69.60907%, 78.492737%, 90.133667%)" stop-opacity="1"/>
<stop offset="0.515625" stop-color="rgb(69.223022%, 78.225708%, 90.011597%)" stop-opacity="1"/>
<stop offset="0.523438" stop-color="rgb(68.836975%, 77.960205%, 89.888%)" stop-opacity="1"/>
<stop offset="0.53125" stop-color="rgb(68.450928%, 77.693176%, 89.76593%)" stop-opacity="1"/>
<stop offset="0.539062" stop-color="rgb(68.06488%, 77.426147%, 89.64386%)" stop-opacity="1"/>
<stop offset="0.546875" stop-color="rgb(67.678833%, 77.160645%, 89.52179%)" stop-opacity="1"/>
<stop offset="0.554688" stop-color="rgb(67.292786%, 76.893616%, 89.398193%)" stop-opacity="1"/>
<stop offset="0.5625" stop-color="rgb(66.906738%, 76.626587%, 89.276123%)" stop-opacity="1"/>
<stop offset="0.570312" stop-color="rgb(66.520691%, 76.361084%, 89.154053%)" stop-opacity="1"/>
<stop offset="0.578125" stop-color="rgb(66.134644%, 76.094055%, 89.030457%)" stop-opacity="1"/>
<stop offset="0.585938" stop-color="rgb(65.748596%, 75.827026%, 88.908386%)" stop-opacity="1"/>
<stop offset="0.59375" stop-color="rgb(65.362549%, 75.561523%, 88.786316%)" stop-opacity="1"/>
<stop offset="0.601562" stop-color="rgb(64.976501%, 75.294495%, 88.66272%)" stop-opacity="1"/>
<stop offset="0.609375" stop-color="rgb(64.590454%, 75.027466%, 88.540649%)" stop-opacity="1"/>
<stop offset="0.617188" stop-color="rgb(64.204407%, 74.761963%, 88.418579%)" stop-opacity="1"/>
<stop offset="0.625" stop-color="rgb(63.818359%, 74.494934%, 88.294983%)" stop-opacity="1"/>
<stop offset="0.632812" stop-color="rgb(63.432312%, 74.227905%, 88.172913%)" stop-opacity="1"/>
<stop offset="0.640625" stop-color="rgb(63.046265%, 73.962402%, 88.050842%)" stop-opacity="1"/>
<stop offset="0.648437" stop-color="rgb(62.660217%, 73.695374%, 87.927246%)" stop-opacity="1"/>
<stop offset="0.65625" stop-color="rgb(62.27417%, 73.428345%, 87.805176%)" stop-opacity="1"/>
<stop offset="0.664062" stop-color="rgb(61.888123%, 73.161316%, 87.683105%)" stop-opacity="1"/>
<stop offset="0.671875" stop-color="rgb(61.502075%, 72.895813%, 87.559509%)" stop-opacity="1"/>
<stop offset="0.679687" stop-color="rgb(61.116028%, 72.628784%, 87.437439%)" stop-opacity="1"/>
<stop offset="0.6875" stop-color="rgb(60.72998%, 72.361755%, 87.315369%)" stop-opacity="1"/>
<stop offset="0.695312" stop-color="rgb(60.343933%, 72.096252%, 87.193298%)" stop-opacity="1"/>
<stop offset="0.703125" stop-color="rgb(59.959412%, 71.829224%, 87.069702%)" stop-opacity="1"/>
<stop offset="0.710937" stop-color="rgb(59.573364%, 71.562195%, 86.947632%)" stop-opacity="1"/>
<stop offset="0.71875" stop-color="rgb(59.187317%, 71.296692%, 86.825562%)" stop-opacity="1"/>
<stop offset="0.726562" stop-color="rgb(58.80127%, 71.029663%, 86.701965%)" stop-opacity="1"/>
<stop offset="0.734375" stop-color="rgb(58.415222%, 70.762634%, 86.579895%)" stop-opacity="1"/>
<stop offset="0.742188" stop-color="rgb(58.029175%, 70.497131%, 86.457825%)" stop-opacity="1"/>
<stop offset="0.75" stop-color="rgb(57.643127%, 70.230103%, 86.334229%)" stop-opacity="1"/>
<stop offset="0.757812" stop-color="rgb(57.25708%, 69.963074%, 86.212158%)" stop-opacity="1"/>
<stop offset="0.765625" stop-color="rgb(56.871033%, 69.697571%, 86.090088%)" stop-opacity="1"/>
<stop offset="0.773438" stop-color="rgb(56.484985%, 69.430542%, 85.966492%)" stop-opacity="1"/>
<stop offset="0.78125" stop-color="rgb(56.098938%, 69.163513%, 85.844421%)" stop-opacity="1"/>
<stop offset="0.789062" stop-color="rgb(55.712891%, 68.89801%, 85.722351%)" stop-opacity="1"/>
<stop offset="0.796875" stop-color="rgb(55.326843%, 68.630981%, 85.598755%)" stop-opacity="1"/>
<stop offset="0.804688" stop-color="rgb(54.940796%, 68.363953%, 85.476685%)" stop-opacity="1"/>
<stop offset="0.8125" stop-color="rgb(54.554749%, 68.096924%, 85.354614%)" stop-opacity="1"/>
<stop offset="0.820312" stop-color="rgb(54.168701%, 67.831421%, 85.232544%)" stop-opacity="1"/>
<stop offset="0.828125" stop-color="rgb(53.782654%, 67.564392%, 85.108948%)" stop-opacity="1"/>
<stop offset="0.835938" stop-color="rgb(53.396606%, 67.297363%, 84.986877%)" stop-opacity="1"/>
<stop offset="0.84375" stop-color="rgb(53.010559%, 67.03186%, 84.864807%)" stop-opacity="1"/>
<stop offset="0.851562" stop-color="rgb(52.624512%, 66.764832%, 84.741211%)" stop-opacity="1"/>
<stop offset="0.859375" stop-color="rgb(52.238464%, 66.497803%, 84.619141%)" stop-opacity="1"/>
<stop offset="0.867188" stop-color="rgb(51.852417%, 66.2323%, 84.49707%)" stop-opacity="1"/>
<stop offset="0.875" stop-color="rgb(51.46637%, 65.965271%, 84.373474%)" stop-opacity="1"/>
<stop offset="0.882812" stop-color="rgb(51.080322%, 65.698242%, 84.251404%)" stop-opacity="1"/>
<stop offset="0.890625" stop-color="rgb(50.694275%, 65.432739%, 84.129333%)" stop-opacity="1"/>
<stop offset="0.898438" stop-color="rgb(50.308228%, 65.16571%, 84.005737%)" stop-opacity="1"/>
<stop offset="0.90625" stop-color="rgb(49.92218%, 64.898682%, 83.883667%)" stop-opacity="1"/>
<stop offset="0.914062" stop-color="rgb(49.536133%, 64.633179%, 83.761597%)" stop-opacity="1"/>
<stop offset="0.921875" stop-color="rgb(49.150085%, 64.36615%, 83.638%)" stop-opacity="1"/>
<stop offset="0.929687" stop-color="rgb(48.764038%, 64.099121%, 83.51593%)" stop-opacity="1"/>
<stop offset="0.9375" stop-color="rgb(48.377991%, 63.833618%, 83.39386%)" stop-opacity="1"/>
<stop offset="0.945312" stop-color="rgb(47.991943%, 63.566589%, 83.27179%)" stop-opacity="1"/>
<stop offset="0.953125" stop-color="rgb(47.605896%, 63.299561%, 83.148193%)" stop-opacity="1"/>
<stop offset="0.960937" stop-color="rgb(47.219849%, 63.034058%, 83.026123%)" stop-opacity="1"/>
<stop offset="0.96875" stop-color="rgb(46.833801%, 62.767029%, 82.904053%)" stop-opacity="1"/>
<stop offset="0.976562" stop-color="rgb(46.447754%, 62.5%, 82.780457%)" stop-opacity="1"/>
<stop offset="0.984375" stop-color="rgb(46.061707%, 62.232971%, 82.658386%)" stop-opacity="1"/>
<stop offset="0.992188" stop-color="rgb(45.675659%, 61.967468%, 82.536316%)" stop-opacity="1"/>
<stop offset="1" stop-color="rgb(45.289612%, 61.700439%, 82.41272%)" stop-opacity="1"/>
</linearGradient>
</defs>
<path fill-rule="evenodd" fill="rgb(20.776367%, 43.138123%, 77.34375%)" fill-opacity="1" d="M 1936.488281 0 C 3001.578125 0 3872.980469 871.421875 3872.980469 1936.488281 C 3872.980469 3001.578125 3001.578125 3872.980469 1936.488281 3872.980469 C 871.414062 3872.980469 0 3001.578125 0 1936.488281 C 0 871.421875 871.414062 0 1936.488281 0 "/>
<g clip-path="url(#clip-0)">
<g clip-path="url(#clip-1)">
<path fill-rule="nonzero" fill="url(#linear-pattern-0)" d="M 842.792969 674.890625 L 842.792969 3175.871094 L 3030.179688 3175.871094 L 3030.179688 674.890625 Z M 842.792969 674.890625 "/>
</g>
</g>
</svg>
